ISO-10303-21;
HEADER;
/* Generated by software containing ST-Developer
 * from STEP Tools, Inc. (www.steptools.com) 
 */
/* OPTION: using custom renumber hook */

FILE_DESCRIPTION(
/* description */ ('STEP AP242 Edition 2',
'CAx-IF Rec.Pracs.---Representation and Presentation of Product Manufa
cturing Information (PMI)---4.0---2014-10-13',
'CAx-IF Rec.Pracs.---3D Tessellated Geometry---0.4---2014-09-14','2;1',
'CAx-IF Rec.Pracs.---User Defined Attributes---1.5---2016-08-15'),
/* implementation_level */ '2;1');

FILE_NAME(
/* name */ 'Part Studio 1 - Panel',
/* time_stamp */ '2026-08-13T05:08:20Z',
/* author */ (''),
/* organization */ (''),
/* preprocessor_version */ 'ST-DEVELOPER v20',
/* originating_system */ 'ONSHAPE BY PTC INC, 1.219',
/* authorisation */ '  ');

FILE_SCHEMA (('AP242_MANAGED_MODEL_BASED_3D_ENGINEERING_MIM_LF { 1 0 10303 442 3 1 4 }'));
ENDSEC;

DATA;
#10=SHAPE_REPRESENTATION_RELATIONSHIP('','',#503,#11);
#11=ADVANCED_BREP_SHAPE_REPRESENTATION('',(#501),#831);
#12=PLANE('',#508);
#13=PLANE('',#512);
#14=PLANE('',#516);
#15=PLANE('',#517);
#16=PLANE('',#518);
#17=PLANE('',#519);
#18=PLANE('',#556);
#19=PLANE('',#557);
#20=PLANE('',#558);
#21=PLANE('',#559);
#22=LINE('',#705,#50);
#23=LINE('',#709,#51);
#24=LINE('',#711,#52);
#25=LINE('',#713,#53);
#26=LINE('',#715,#54);
#27=LINE('',#719,#55);
#28=LINE('',#723,#56);
#29=LINE('',#726,#57);
#30=LINE('',#728,#58);
#31=LINE('',#730,#59);
#32=LINE('',#734,#60);
#33=LINE('',#738,#61);
#34=LINE('',#740,#62);
#35=LINE('',#742,#63);
#36=LINE('',#744,#64);
#37=LINE('',#747,#65);
#38=LINE('',#749,#66);
#39=LINE('',#751,#67);
#40=LINE('',#753,#68);
#41=LINE('',#755,#69);
#42=LINE('',#757,#70);
#43=LINE('',#759,#71);
#44=LINE('',#761,#72);
#45=LINE('',#763,#73);
#46=LINE('',#823,#74);
#47=LINE('',#824,#75);
#48=LINE('',#826,#76);
#49=LINE('',#827,#77);
#50=VECTOR('',#566,1.);
#51=VECTOR('',#569,1.);
#52=VECTOR('',#572,1.);
#53=VECTOR('',#573,1.);
#54=VECTOR('',#574,1.);
#55=VECTOR('',#579,1.);
#56=VECTOR('',#584,1.);
#57=VECTOR('',#585,1.);
#58=VECTOR('',#586,1.);
#59=VECTOR('',#587,1.);
#60=VECTOR('',#592,1.);
#61=VECTOR('',#597,1.);
#62=VECTOR('',#598,1.);
#63=VECTOR('',#599,1.);
#64=VECTOR('',#602,1.);
#65=VECTOR('',#603,1.);
#66=VECTOR('',#604,1.);
#67=VECTOR('',#605,1.);
#68=VECTOR('',#608,1.);
#69=VECTOR('',#609,1.);
#70=VECTOR('',#610,1.);
#71=VECTOR('',#613,1.);
#72=VECTOR('',#614,1.);
#73=VECTOR('',#615,1.);
#74=VECTOR('',#690,1.);
#75=VECTOR('',#691,1.);
#76=VECTOR('',#694,1.);
#77=VECTOR('',#695,1.);
#78=ORIENTED_EDGE('',*,*,#194,.T.);
#79=ORIENTED_EDGE('',*,*,#195,.F.);
#80=ORIENTED_EDGE('',*,*,#196,.F.);
#81=ORIENTED_EDGE('',*,*,#197,.T.);
#82=ORIENTED_EDGE('',*,*,#198,.T.);
#83=ORIENTED_EDGE('',*,*,#199,.F.);
#84=ORIENTED_EDGE('',*,*,#200,.F.);
#85=ORIENTED_EDGE('',*,*,#195,.T.);
#86=ORIENTED_EDGE('',*,*,#201,.T.);
#87=ORIENTED_EDGE('',*,*,#202,.F.);
#88=ORIENTED_EDGE('',*,*,#203,.F.);
#89=ORIENTED_EDGE('',*,*,#199,.T.);
#90=ORIENTED_EDGE('',*,*,#204,.F.);
#91=ORIENTED_EDGE('',*,*,#205,.F.);
#92=ORIENTED_EDGE('',*,*,#206,.T.);
#93=ORIENTED_EDGE('',*,*,#207,.T.);
#94=ORIENTED_EDGE('',*,*,#208,.T.);
#95=ORIENTED_EDGE('',*,*,#209,.F.);
#96=ORIENTED_EDGE('',*,*,#210,.F.);
#97=ORIENTED_EDGE('',*,*,#205,.T.);
#98=ORIENTED_EDGE('',*,*,#211,.F.);
#99=ORIENTED_EDGE('',*,*,#212,.F.);
#100=ORIENTED_EDGE('',*,*,#213,.T.);
#101=ORIENTED_EDGE('',*,*,#209,.T.);
#102=ORIENTED_EDGE('',*,*,#214,.F.);
#103=ORIENTED_EDGE('',*,*,#215,.F.);
#104=ORIENTED_EDGE('',*,*,#216,.T.);
#105=ORIENTED_EDGE('',*,*,#217,.T.);
#106=ORIENTED_EDGE('',*,*,#218,.T.);
#107=ORIENTED_EDGE('',*,*,#219,.F.);
#108=ORIENTED_EDGE('',*,*,#220,.F.);
#109=ORIENTED_EDGE('',*,*,#215,.T.);
#110=ORIENTED_EDGE('',*,*,#221,.T.);
#111=ORIENTED_EDGE('',*,*,#222,.F.);
#112=ORIENTED_EDGE('',*,*,#223,.F.);
#113=ORIENTED_EDGE('',*,*,#219,.T.);
#114=ORIENTED_EDGE('',*,*,#224,.F.);
#115=ORIENTED_EDGE('',*,*,#225,.T.);
#116=ORIENTED_EDGE('',*,*,#226,.T.);
#117=ORIENTED_EDGE('',*,*,#227,.F.);
#118=ORIENTED_EDGE('',*,*,#228,.T.);
#119=ORIENTED_EDGE('',*,*,#229,.F.);
#120=ORIENTED_EDGE('',*,*,#230,.T.);
#121=ORIENTED_EDGE('',*,*,#231,.F.);
#122=ORIENTED_EDGE('',*,*,#232,.T.);
#123=ORIENTED_EDGE('',*,*,#233,.F.);
#124=ORIENTED_EDGE('',*,*,#234,.T.);
#125=ORIENTED_EDGE('',*,*,#235,.F.);
#126=ORIENTED_EDGE('',*,*,#236,.T.);
#127=ORIENTED_EDGE('',*,*,#237,.F.);
#128=ORIENTED_EDGE('',*,*,#238,.T.);
#129=ORIENTED_EDGE('',*,*,#239,.F.);
#130=ORIENTED_EDGE('',*,*,#240,.F.);
#131=ORIENTED_EDGE('',*,*,#241,.T.);
#132=ORIENTED_EDGE('',*,*,#242,.F.);
#133=ORIENTED_EDGE('',*,*,#243,.T.);
#134=ORIENTED_EDGE('',*,*,#244,.T.);
#135=ORIENTED_EDGE('',*,*,#245,.F.);
#136=ORIENTED_EDGE('',*,*,#246,.T.);
#137=ORIENTED_EDGE('',*,*,#207,.F.);
#138=ORIENTED_EDGE('',*,*,#247,.F.);
#139=ORIENTED_EDGE('',*,*,#212,.T.);
#140=ORIENTED_EDGE('',*,*,#248,.F.);
#141=ORIENTED_EDGE('',*,*,#217,.F.);
#142=ORIENTED_EDGE('',*,*,#249,.T.);
#143=ORIENTED_EDGE('',*,*,#222,.T.);
#144=ORIENTED_EDGE('',*,*,#250,.T.);
#145=ORIENTED_EDGE('',*,*,#197,.F.);
#146=ORIENTED_EDGE('',*,*,#251,.F.);
#147=ORIENTED_EDGE('',*,*,#202,.T.);
#148=ORIENTED_EDGE('',*,*,#216,.F.);
#149=ORIENTED_EDGE('',*,*,#220,.T.);
#150=ORIENTED_EDGE('',*,*,#223,.T.);
#151=ORIENTED_EDGE('',*,*,#249,.F.);
#152=ORIENTED_EDGE('',*,*,#206,.F.);
#153=ORIENTED_EDGE('',*,*,#210,.T.);
#154=ORIENTED_EDGE('',*,*,#213,.F.);
#155=ORIENTED_EDGE('',*,*,#247,.T.);
#156=ORIENTED_EDGE('',*,*,#244,.F.);
#157=ORIENTED_EDGE('',*,*,#242,.T.);
#158=ORIENTED_EDGE('',*,*,#240,.T.);
#159=ORIENTED_EDGE('',*,*,#238,.F.);
#160=ORIENTED_EDGE('',*,*,#236,.F.);
#161=ORIENTED_EDGE('',*,*,#234,.F.);
#162=ORIENTED_EDGE('',*,*,#232,.F.);
#163=ORIENTED_EDGE('',*,*,#230,.F.);
#164=ORIENTED_EDGE('',*,*,#228,.F.);
#165=ORIENTED_EDGE('',*,*,#226,.F.);
#166=ORIENTED_EDGE('',*,*,#224,.T.);
#167=ORIENTED_EDGE('',*,*,#196,.T.);
#168=ORIENTED_EDGE('',*,*,#200,.T.);
#169=ORIENTED_EDGE('',*,*,#203,.T.);
#170=ORIENTED_EDGE('',*,*,#251,.T.);
#171=ORIENTED_EDGE('',*,*,#214,.T.);
#172=ORIENTED_EDGE('',*,*,#248,.T.);
#173=ORIENTED_EDGE('',*,*,#221,.F.);
#174=ORIENTED_EDGE('',*,*,#218,.F.);
#175=ORIENTED_EDGE('',*,*,#204,.T.);
#176=ORIENTED_EDGE('',*,*,#246,.F.);
#177=ORIENTED_EDGE('',*,*,#211,.T.);
#178=ORIENTED_EDGE('',*,*,#208,.F.);
#179=ORIENTED_EDGE('',*,*,#245,.T.);
#180=ORIENTED_EDGE('',*,*,#243,.F.);
#181=ORIENTED_EDGE('',*,*,#241,.F.);
#182=ORIENTED_EDGE('',*,*,#239,.T.);
#183=ORIENTED_EDGE('',*,*,#237,.T.);
#184=ORIENTED_EDGE('',*,*,#235,.T.);
#185=ORIENTED_EDGE('',*,*,#233,.T.);
#186=ORIENTED_EDGE('',*,*,#231,.T.);
#187=ORIENTED_EDGE('',*,*,#229,.T.);
#188=ORIENTED_EDGE('',*,*,#227,.T.);
#189=ORIENTED_EDGE('',*,*,#225,.F.);
#190=ORIENTED_EDGE('',*,*,#194,.F.);
#191=ORIENTED_EDGE('',*,*,#250,.F.);
#192=ORIENTED_EDGE('',*,*,#201,.F.);
#193=ORIENTED_EDGE('',*,*,#198,.F.);
#194=EDGE_CURVE('',#252,#253,#298,.T.);
#195=EDGE_CURVE('',#254,#253,#22,.T.);
#196=EDGE_CURVE('',#255,#254,#299,.T.);
#197=EDGE_CURVE('',#255,#252,#23,.T.);
#198=EDGE_CURVE('',#253,#256,#24,.T.);
#199=EDGE_CURVE('',#257,#256,#25,.T.);
#200=EDGE_CURVE('',#254,#257,#26,.T.);
#201=EDGE_CURVE('',#256,#258,#300,.T.);
#202=EDGE_CURVE('',#259,#258,#27,.T.);
#203=EDGE_CURVE('',#257,#259,#301,.T.);
#204=EDGE_CURVE('',#260,#261,#28,.T.);
#205=EDGE_CURVE('',#262,#260,#29,.T.);
#206=EDGE_CURVE('',#262,#263,#30,.T.);
#207=EDGE_CURVE('',#263,#261,#31,.T.);
#208=EDGE_CURVE('',#260,#264,#302,.T.);
#209=EDGE_CURVE('',#265,#264,#32,.T.);
#210=EDGE_CURVE('',#262,#265,#303,.T.);
#211=EDGE_CURVE('',#266,#264,#33,.T.);
#212=EDGE_CURVE('',#267,#266,#34,.T.);
#213=EDGE_CURVE('',#267,#265,#35,.T.);
#214=EDGE_CURVE('',#268,#269,#36,.T.);
#215=EDGE_CURVE('',#270,#268,#37,.T.);
#216=EDGE_CURVE('',#270,#271,#38,.T.);
#217=EDGE_CURVE('',#271,#269,#39,.T.);
#218=EDGE_CURVE('',#268,#272,#40,.T.);
#219=EDGE_CURVE('',#273,#272,#41,.T.);
#220=EDGE_CURVE('',#270,#273,#42,.T.);
#221=EDGE_CURVE('',#272,#274,#43,.T.);
#222=EDGE_CURVE('',#275,#274,#44,.T.);
#223=EDGE_CURVE('',#273,#275,#45,.T.);
#224=EDGE_CURVE('',#276,#276,#304,.T.);
#225=EDGE_CURVE('',#277,#277,#305,.T.);
#226=EDGE_CURVE('',#278,#278,#306,.T.);
#227=EDGE_CURVE('',#279,#279,#307,.T.);
#228=EDGE_CURVE('',#280,#280,#308,.T.);
#229=EDGE_CURVE('',#281,#281,#309,.T.);
#230=EDGE_CURVE('',#282,#282,#310,.T.);
#231=EDGE_CURVE('',#283,#283,#311,.T.);
#232=EDGE_CURVE('',#284,#284,#312,.T.);
#233=EDGE_CURVE('',#285,#285,#313,.T.);
#234=EDGE_CURVE('',#286,#286,#314,.T.);
#235=EDGE_CURVE('',#287,#287,#315,.T.);
#236=EDGE_CURVE('',#288,#288,#316,.T.);
#237=EDGE_CURVE('',#289,#289,#317,.T.);
#238=EDGE_CURVE('',#290,#290,#318,.T.);
#239=EDGE_CURVE('',#291,#291,#319,.T.);
#240=EDGE_CURVE('',#292,#292,#320,.T.);
#241=EDGE_CURVE('',#293,#293,#321,.T.);
#242=EDGE_CURVE('',#294,#294,#322,.T.);
#243=EDGE_CURVE('',#295,#295,#323,.T.);
#244=EDGE_CURVE('',#296,#296,#324,.T.);
#245=EDGE_CURVE('',#297,#297,#325,.T.);
#246=EDGE_CURVE('',#266,#261,#326,.T.);
#247=EDGE_CURVE('',#267,#263,#327,.T.);
#248=EDGE_CURVE('',#269,#274,#46,.T.);
#249=EDGE_CURVE('',#271,#275,#47,.T.);
#250=EDGE_CURVE('',#258,#252,#48,.T.);
#251=EDGE_CURVE('',#259,#255,#49,.T.);
#252=VERTEX_POINT('',#703);
#253=VERTEX_POINT('',#704);
#254=VERTEX_POINT('',#706);
#255=VERTEX_POINT('',#708);
#256=VERTEX_POINT('',#712);
#257=VERTEX_POINT('',#714);
#258=VERTEX_POINT('',#718);
#259=VERTEX_POINT('',#720);
#260=VERTEX_POINT('',#724);
#261=VERTEX_POINT('',#725);
#262=VERTEX_POINT('',#727);
#263=VERTEX_POINT('',#729);
#264=VERTEX_POINT('',#733);
#265=VERTEX_POINT('',#735);
#266=VERTEX_POINT('',#739);
#267=VERTEX_POINT('',#741);
#268=VERTEX_POINT('',#745);
#269=VERTEX_POINT('',#746);
#270=VERTEX_POINT('',#748);
#271=VERTEX_POINT('',#750);
#272=VERTEX_POINT('',#754);
#273=VERTEX_POINT('',#756);
#274=VERTEX_POINT('',#760);
#275=VERTEX_POINT('',#762);
#276=VERTEX_POINT('',#766);
#277=VERTEX_POINT('',#768);
#278=VERTEX_POINT('',#771);
#279=VERTEX_POINT('',#773);
#280=VERTEX_POINT('',#776);
#281=VERTEX_POINT('',#778);
#282=VERTEX_POINT('',#781);
#283=VERTEX_POINT('',#783);
#284=VERTEX_POINT('',#786);
#285=VERTEX_POINT('',#788);
#286=VERTEX_POINT('',#791);
#287=VERTEX_POINT('',#793);
#288=VERTEX_POINT('',#796);
#289=VERTEX_POINT('',#798);
#290=VERTEX_POINT('',#801);
#291=VERTEX_POINT('',#803);
#292=VERTEX_POINT('',#806);
#293=VERTEX_POINT('',#808);
#294=VERTEX_POINT('',#811);
#295=VERTEX_POINT('',#813);
#296=VERTEX_POINT('',#816);
#297=VERTEX_POINT('',#818);
#298=CIRCLE('',#506,0.0015);
#299=CIRCLE('',#507,0.0015);
#300=CIRCLE('',#510,0.0015);
#301=CIRCLE('',#511,0.0015);
#302=CIRCLE('',#514,0.0015);
#303=CIRCLE('',#515,0.0015);
#304=CIRCLE('',#521,0.0033);
#305=CIRCLE('',#522,0.0033);
#306=CIRCLE('',#524,0.003875);
#307=CIRCLE('',#525,0.003875);
#308=CIRCLE('',#527,0.003875);
#309=CIRCLE('',#528,0.003875);
#310=CIRCLE('',#530,0.0029);
#311=CIRCLE('',#531,0.0029);
#312=CIRCLE('',#533,0.0029);
#313=CIRCLE('',#534,0.0029);
#314=CIRCLE('',#536,0.0029);
#315=CIRCLE('',#537,0.0029);
#316=CIRCLE('',#539,0.0016);
#317=CIRCLE('',#540,0.0016);
#318=CIRCLE('',#542,0.0016);
#319=CIRCLE('',#543,0.0016);
#320=CIRCLE('',#545,0.0016);
#321=CIRCLE('',#546,0.0016);
#322=CIRCLE('',#548,0.0016);
#323=CIRCLE('',#549,0.0016);
#324=CIRCLE('',#551,0.0033);
#325=CIRCLE('',#552,0.0033);
#326=CIRCLE('',#554,0.0015);
#327=CIRCLE('',#555,0.0015);
#328=EDGE_LOOP('',(#78,#79,#80,#81));
#329=EDGE_LOOP('',(#82,#83,#84,#85));
#330=EDGE_LOOP('',(#86,#87,#88,#89));
#331=EDGE_LOOP('',(#90,#91,#92,#93));
#332=EDGE_LOOP('',(#94,#95,#96,#97));
#333=EDGE_LOOP('',(#98,#99,#100,#101));
#334=EDGE_LOOP('',(#102,#103,#104,#105));
#335=EDGE_LOOP('',(#106,#107,#108,#109));
#336=EDGE_LOOP('',(#110,#111,#112,#113));
#337=EDGE_LOOP('',(#114));
#338=EDGE_LOOP('',(#115));
#339=EDGE_LOOP('',(#116));
#340=EDGE_LOOP('',(#117));
#341=EDGE_LOOP('',(#118));
#342=EDGE_LOOP('',(#119));
#343=EDGE_LOOP('',(#120));
#344=EDGE_LOOP('',(#121));
#345=EDGE_LOOP('',(#122));
#346=EDGE_LOOP('',(#123));
#347=EDGE_LOOP('',(#124));
#348=EDGE_LOOP('',(#125));
#349=EDGE_LOOP('',(#126));
#350=EDGE_LOOP('',(#127));
#351=EDGE_LOOP('',(#128));
#352=EDGE_LOOP('',(#129));
#353=EDGE_LOOP('',(#130));
#354=EDGE_LOOP('',(#131));
#355=EDGE_LOOP('',(#132));
#356=EDGE_LOOP('',(#133));
#357=EDGE_LOOP('',(#134));
#358=EDGE_LOOP('',(#135));
#359=EDGE_LOOP('',(#136,#137,#138,#139));
#360=EDGE_LOOP('',(#140,#141,#142,#143));
#361=EDGE_LOOP('',(#144,#145,#146,#147));
#362=EDGE_LOOP('',(#148,#149,#150,#151));
#363=EDGE_LOOP('',(#152,#153,#154,#155));
#364=EDGE_LOOP('',(#156));
#365=EDGE_LOOP('',(#157));
#366=EDGE_LOOP('',(#158));
#367=EDGE_LOOP('',(#159));
#368=EDGE_LOOP('',(#160));
#369=EDGE_LOOP('',(#161));
#370=EDGE_LOOP('',(#162));
#371=EDGE_LOOP('',(#163));
#372=EDGE_LOOP('',(#164));
#373=EDGE_LOOP('',(#165));
#374=EDGE_LOOP('',(#166));
#375=EDGE_LOOP('',(#167,#168,#169,#170));
#376=EDGE_LOOP('',(#171,#172,#173,#174));
#377=EDGE_LOOP('',(#175,#176,#177,#178));
#378=EDGE_LOOP('',(#179));
#379=EDGE_LOOP('',(#180));
#380=EDGE_LOOP('',(#181));
#381=EDGE_LOOP('',(#182));
#382=EDGE_LOOP('',(#183));
#383=EDGE_LOOP('',(#184));
#384=EDGE_LOOP('',(#185));
#385=EDGE_LOOP('',(#186));
#386=EDGE_LOOP('',(#187));
#387=EDGE_LOOP('',(#188));
#388=EDGE_LOOP('',(#189));
#389=EDGE_LOOP('',(#190,#191,#192,#193));
#390=FACE_BOUND('',#328,.T.);
#391=FACE_BOUND('',#329,.T.);
#392=FACE_BOUND('',#330,.T.);
#393=FACE_BOUND('',#331,.T.);
#394=FACE_BOUND('',#332,.T.);
#395=FACE_BOUND('',#333,.T.);
#396=FACE_BOUND('',#334,.T.);
#397=FACE_BOUND('',#335,.T.);
#398=FACE_BOUND('',#336,.T.);
#399=FACE_BOUND('',#337,.T.);
#400=FACE_BOUND('',#338,.T.);
#401=FACE_BOUND('',#339,.T.);
#402=FACE_BOUND('',#340,.T.);
#403=FACE_BOUND('',#341,.T.);
#404=FACE_BOUND('',#342,.T.);
#405=FACE_BOUND('',#343,.T.);
#406=FACE_BOUND('',#344,.T.);
#407=FACE_BOUND('',#345,.T.);
#408=FACE_BOUND('',#346,.T.);
#409=FACE_BOUND('',#347,.T.);
#410=FACE_BOUND('',#348,.T.);
#411=FACE_BOUND('',#349,.T.);
#412=FACE_BOUND('',#350,.T.);
#413=FACE_BOUND('',#351,.T.);
#414=FACE_BOUND('',#352,.T.);
#415=FACE_BOUND('',#353,.T.);
#416=FACE_BOUND('',#354,.T.);
#417=FACE_BOUND('',#355,.T.);
#418=FACE_BOUND('',#356,.T.);
#419=FACE_BOUND('',#357,.T.);
#420=FACE_BOUND('',#358,.T.);
#421=FACE_BOUND('',#359,.T.);
#422=FACE_BOUND('',#360,.T.);
#423=FACE_BOUND('',#361,.T.);
#424=FACE_BOUND('',#362,.T.);
#425=FACE_BOUND('',#363,.T.);
#426=FACE_BOUND('',#364,.T.);
#427=FACE_BOUND('',#365,.T.);
#428=FACE_BOUND('',#366,.T.);
#429=FACE_BOUND('',#367,.T.);
#430=FACE_BOUND('',#368,.T.);
#431=FACE_BOUND('',#369,.T.);
#432=FACE_BOUND('',#370,.T.);
#433=FACE_BOUND('',#371,.T.);
#434=FACE_BOUND('',#372,.T.);
#435=FACE_BOUND('',#373,.T.);
#436=FACE_BOUND('',#374,.T.);
#437=FACE_BOUND('',#375,.T.);
#438=FACE_BOUND('',#376,.T.);
#439=FACE_BOUND('',#377,.T.);
#440=FACE_BOUND('',#378,.T.);
#441=FACE_BOUND('',#379,.T.);
#442=FACE_BOUND('',#380,.T.);
#443=FACE_BOUND('',#381,.T.);
#444=FACE_BOUND('',#382,.T.);
#445=FACE_BOUND('',#383,.T.);
#446=FACE_BOUND('',#384,.T.);
#447=FACE_BOUND('',#385,.T.);
#448=FACE_BOUND('',#386,.T.);
#449=FACE_BOUND('',#387,.T.);
#450=FACE_BOUND('',#388,.T.);
#451=FACE_BOUND('',#389,.T.);
#452=CYLINDRICAL_SURFACE('',#505,0.0015);
#453=CYLINDRICAL_SURFACE('',#509,0.0015);
#454=CYLINDRICAL_SURFACE('',#513,0.0015);
#455=CYLINDRICAL_SURFACE('',#520,0.0033);
#456=CYLINDRICAL_SURFACE('',#523,0.003875);
#457=CYLINDRICAL_SURFACE('',#526,0.003875);
#458=CYLINDRICAL_SURFACE('',#529,0.0029);
#459=CYLINDRICAL_SURFACE('',#532,0.0029);
#460=CYLINDRICAL_SURFACE('',#535,0.0029);
#461=CYLINDRICAL_SURFACE('',#538,0.0016);
#462=CYLINDRICAL_SURFACE('',#541,0.0016);
#463=CYLINDRICAL_SURFACE('',#544,0.0016);
#464=CYLINDRICAL_SURFACE('',#547,0.0016);
#465=CYLINDRICAL_SURFACE('',#550,0.0033);
#466=CYLINDRICAL_SURFACE('',#553,0.0015);
#467=ADVANCED_FACE('',(#390),#452,.F.);
#468=ADVANCED_FACE('',(#391),#12,.F.);
#469=ADVANCED_FACE('',(#392),#453,.F.);
#470=ADVANCED_FACE('',(#393),#13,.T.);
#471=ADVANCED_FACE('',(#394),#454,.F.);
#472=ADVANCED_FACE('',(#395),#14,.T.);
#473=ADVANCED_FACE('',(#396),#15,.T.);
#474=ADVANCED_FACE('',(#397),#16,.F.);
#475=ADVANCED_FACE('',(#398),#17,.F.);
#476=ADVANCED_FACE('',(#399,#400),#455,.F.);
#477=ADVANCED_FACE('',(#401,#402),#456,.F.);
#478=ADVANCED_FACE('',(#403,#404),#457,.F.);
#479=ADVANCED_FACE('',(#405,#406),#458,.F.);
#480=ADVANCED_FACE('',(#407,#408),#459,.F.);
#481=ADVANCED_FACE('',(#409,#410),#460,.F.);
#482=ADVANCED_FACE('',(#411,#412),#461,.F.);
#483=ADVANCED_FACE('',(#413,#414),#462,.F.);
#484=ADVANCED_FACE('',(#415,#416),#463,.F.);
#485=ADVANCED_FACE('',(#417,#418),#464,.F.);
#486=ADVANCED_FACE('',(#419,#420),#465,.F.);
#487=ADVANCED_FACE('',(#421),#466,.F.);
#488=ADVANCED_FACE('',(#422),#18,.T.);
#489=ADVANCED_FACE('',(#423),#19,.F.);
#490=ADVANCED_FACE('',(#424,#425,#426,#427,#428,#429,#430,#431,#432,#433,
#434,#435,#436,#437),#20,.T.);
#491=ADVANCED_FACE('',(#438,#439,#440,#441,#442,#443,#444,#445,#446,#447,
#448,#449,#450,#451),#21,.F.);
#492=CLOSED_SHELL('',(#467,#468,#469,#470,#471,#472,#473,#474,#475,#476,
#477,#478,#479,#480,#481,#482,#483,#484,#485,#486,#487,#488,#489,#490,#491));
#493=STYLED_ITEM('',(#494),#501);
#494=PRESENTATION_STYLE_ASSIGNMENT((#495));
#495=SURFACE_STYLE_USAGE(.BOTH.,#496);
#496=SURFACE_SIDE_STYLE('',(#497));
#497=SURFACE_STYLE_FILL_AREA(#498);
#498=FILL_AREA_STYLE('',(#499));
#499=FILL_AREA_STYLE_COLOUR('',#500);
#500=COLOUR_RGB('',0.615686274509804,0.811764705882353,0.929411764705882);
#501=MANIFOLD_SOLID_BREP('Panel',#492);
#502=SHAPE_DEFINITION_REPRESENTATION(#836,#503);
#503=SHAPE_REPRESENTATION('Panel',(#504),#831);
#504=AXIS2_PLACEMENT_3D('',#700,#560,#561);
#505=AXIS2_PLACEMENT_3D('',#701,#562,#563);
#506=AXIS2_PLACEMENT_3D('',#702,#564,#565);
#507=AXIS2_PLACEMENT_3D('',#707,#567,#568);
#508=AXIS2_PLACEMENT_3D('',#710,#570,#571);
#509=AXIS2_PLACEMENT_3D('',#716,#575,#576);
#510=AXIS2_PLACEMENT_3D('',#717,#577,#578);
#511=AXIS2_PLACEMENT_3D('',#721,#580,#581);
#512=AXIS2_PLACEMENT_3D('',#722,#582,#583);
#513=AXIS2_PLACEMENT_3D('',#731,#588,#589);
#514=AXIS2_PLACEMENT_3D('',#732,#590,#591);
#515=AXIS2_PLACEMENT_3D('',#736,#593,#594);
#516=AXIS2_PLACEMENT_3D('',#737,#595,#596);
#517=AXIS2_PLACEMENT_3D('',#743,#600,#601);
#518=AXIS2_PLACEMENT_3D('',#752,#606,#607);
#519=AXIS2_PLACEMENT_3D('',#758,#611,#612);
#520=AXIS2_PLACEMENT_3D('',#764,#616,#617);
#521=AXIS2_PLACEMENT_3D('',#765,#618,#619);
#522=AXIS2_PLACEMENT_3D('',#767,#620,#621);
#523=AXIS2_PLACEMENT_3D('',#769,#622,#623);
#524=AXIS2_PLACEMENT_3D('',#770,#624,#625);
#525=AXIS2_PLACEMENT_3D('',#772,#626,#627);
#526=AXIS2_PLACEMENT_3D('',#774,#628,#629);
#527=AXIS2_PLACEMENT_3D('',#775,#630,#631);
#528=AXIS2_PLACEMENT_3D('',#777,#632,#633);
#529=AXIS2_PLACEMENT_3D('',#779,#634,#635);
#530=AXIS2_PLACEMENT_3D('',#780,#636,#637);
#531=AXIS2_PLACEMENT_3D('',#782,#638,#639);
#532=AXIS2_PLACEMENT_3D('',#784,#640,#641);
#533=AXIS2_PLACEMENT_3D('',#785,#642,#643);
#534=AXIS2_PLACEMENT_3D('',#787,#644,#645);
#535=AXIS2_PLACEMENT_3D('',#789,#646,#647);
#536=AXIS2_PLACEMENT_3D('',#790,#648,#649);
#537=AXIS2_PLACEMENT_3D('',#792,#650,#651);
#538=AXIS2_PLACEMENT_3D('',#794,#652,#653);
#539=AXIS2_PLACEMENT_3D('',#795,#654,#655);
#540=AXIS2_PLACEMENT_3D('',#797,#656,#657);
#541=AXIS2_PLACEMENT_3D('',#799,#658,#659);
#542=AXIS2_PLACEMENT_3D('',#800,#660,#661);
#543=AXIS2_PLACEMENT_3D('',#802,#662,#663);
#544=AXIS2_PLACEMENT_3D('',#804,#664,#665);
#545=AXIS2_PLACEMENT_3D('',#805,#666,#667);
#546=AXIS2_PLACEMENT_3D('',#807,#668,#669);
#547=AXIS2_PLACEMENT_3D('',#809,#670,#671);
#548=AXIS2_PLACEMENT_3D('',#810,#672,#673);
#549=AXIS2_PLACEMENT_3D('',#812,#674,#675);
#550=AXIS2_PLACEMENT_3D('',#814,#676,#677);
#551=AXIS2_PLACEMENT_3D('',#815,#678,#679);
#552=AXIS2_PLACEMENT_3D('',#817,#680,#681);
#553=AXIS2_PLACEMENT_3D('',#819,#682,#683);
#554=AXIS2_PLACEMENT_3D('',#820,#684,#685);
#555=AXIS2_PLACEMENT_3D('',#821,#686,#687);
#556=AXIS2_PLACEMENT_3D('',#822,#688,#689);
#557=AXIS2_PLACEMENT_3D('',#825,#692,#693);
#558=AXIS2_PLACEMENT_3D('',#828,#696,#697);
#559=AXIS2_PLACEMENT_3D('',#829,#698,#699);
#560=DIRECTION('',(0.,0.,1.));
#561=DIRECTION('',(1.,0.,0.));
#562=DIRECTION('',(0.,0.,-1.));
#563=DIRECTION('',(-1.,0.,0.));
#564=DIRECTION('',(0.,0.,-1.));
#565=DIRECTION('',(1.,0.,0.));
#566=DIRECTION('',(0.,0.,-1.));
#567=DIRECTION('',(0.,0.,-1.));
#568=DIRECTION('',(1.,0.,0.));
#569=DIRECTION('',(0.,0.,-1.));
#570=DIRECTION('',(-1.,0.,0.));
#571=DIRECTION('',(0.,0.,1.));
#572=DIRECTION('',(0.,1.,0.));
#573=DIRECTION('',(0.,0.,-1.));
#574=DIRECTION('',(0.,1.,0.));
#575=DIRECTION('',(0.,0.,-1.));
#576=DIRECTION('',(-1.,0.,0.));
#577=DIRECTION('',(0.,0.,-1.));
#578=DIRECTION('',(1.,0.,0.));
#579=DIRECTION('',(0.,0.,-1.));
#580=DIRECTION('',(0.,0.,-1.));
#581=DIRECTION('',(1.,0.,0.));
#582=DIRECTION('',(1.,0.,0.));
#583=DIRECTION('',(0.,0.,-1.));
#584=DIRECTION('',(0.,-1.,0.));
#585=DIRECTION('',(0.,0.,-1.));
#586=DIRECTION('',(0.,-1.,0.));
#587=DIRECTION('',(0.,0.,-1.));
#588=DIRECTION('',(0.,0.,-1.));
#589=DIRECTION('',(-1.,0.,0.));
#590=DIRECTION('',(0.,0.,-1.));
#591=DIRECTION('',(1.,0.,0.));
#592=DIRECTION('',(0.,0.,-1.));
#593=DIRECTION('',(0.,0.,-1.));
#594=DIRECTION('',(1.,0.,0.));
#595=DIRECTION('',(-1.,0.,0.));
#596=DIRECTION('',(0.,0.,1.));
#597=DIRECTION('',(0.,1.,0.));
#598=DIRECTION('',(0.,0.,-1.));
#599=DIRECTION('',(0.,1.,0.));
#600=DIRECTION('',(1.,-7.8052799818979E-17,0.));
#601=DIRECTION('',(7.8052799818979E-17,1.,0.));
#602=DIRECTION('',(-7.8052799818979E-17,-1.,0.));
#603=DIRECTION('',(0.,0.,-1.));
#604=DIRECTION('',(-7.8052799818979E-17,-1.,0.));
#605=DIRECTION('',(0.,0.,-1.));
#606=DIRECTION('',(0.,-1.,0.));
#607=DIRECTION('',(0.,0.,-1.));
#608=DIRECTION('',(-1.,0.,0.));
#609=DIRECTION('',(0.,0.,-1.));
#610=DIRECTION('',(-1.,0.,0.));
#611=DIRECTION('',(1.,-7.8052799818979E-17,0.));
#612=DIRECTION('',(7.8052799818979E-17,1.,0.));
#613=DIRECTION('',(-7.8052799818979E-17,-1.,0.));
#614=DIRECTION('',(0.,0.,-1.));
#615=DIRECTION('',(-7.8052799818979E-17,-1.,0.));
#616=DIRECTION('',(0.,0.,-1.));
#617=DIRECTION('',(-1.,0.,0.));
#618=DIRECTION('',(0.,0.,-1.));
#619=DIRECTION('',(1.,0.,0.));
#620=DIRECTION('',(0.,0.,-1.));
#621=DIRECTION('',(1.,0.,0.));
#622=DIRECTION('',(0.,0.,-1.));
#623=DIRECTION('',(-1.,0.,0.));
#624=DIRECTION('',(0.,0.,1.));
#625=DIRECTION('',(1.,0.,0.));
#626=DIRECTION('',(0.,0.,1.));
#627=DIRECTION('',(1.,0.,0.));
#628=DIRECTION('',(0.,0.,-1.));
#629=DIRECTION('',(-1.,0.,0.));
#630=DIRECTION('',(0.,0.,1.));
#631=DIRECTION('',(1.,0.,0.));
#632=DIRECTION('',(0.,0.,1.));
#633=DIRECTION('',(1.,0.,0.));
#634=DIRECTION('',(0.,0.,-1.));
#635=DIRECTION('',(-1.,0.,0.));
#636=DIRECTION('',(0.,0.,1.));
#637=DIRECTION('',(1.,0.,0.));
#638=DIRECTION('',(0.,0.,1.));
#639=DIRECTION('',(1.,0.,0.));
#640=DIRECTION('',(0.,0.,-1.));
#641=DIRECTION('',(-1.,0.,0.));
#642=DIRECTION('',(0.,0.,1.));
#643=DIRECTION('',(1.,0.,0.));
#644=DIRECTION('',(0.,0.,1.));
#645=DIRECTION('',(1.,0.,0.));
#646=DIRECTION('',(0.,0.,-1.));
#647=DIRECTION('',(-1.,0.,0.));
#648=DIRECTION('',(0.,0.,1.));
#649=DIRECTION('',(1.,0.,0.));
#650=DIRECTION('',(0.,0.,1.));
#651=DIRECTION('',(1.,0.,0.));
#652=DIRECTION('',(0.,0.,-1.));
#653=DIRECTION('',(-1.,0.,0.));
#654=DIRECTION('',(0.,0.,1.));
#655=DIRECTION('',(1.,0.,0.));
#656=DIRECTION('',(0.,0.,1.));
#657=DIRECTION('',(1.,0.,0.));
#658=DIRECTION('',(0.,0.,-1.));
#659=DIRECTION('',(-1.,0.,0.));
#660=DIRECTION('',(0.,0.,1.));
#661=DIRECTION('',(1.,0.,0.));
#662=DIRECTION('',(0.,0.,1.));
#663=DIRECTION('',(1.,0.,0.));
#664=DIRECTION('',(0.,0.,-1.));
#665=DIRECTION('',(-1.,0.,0.));
#666=DIRECTION('',(0.,0.,-1.));
#667=DIRECTION('',(1.,0.,0.));
#668=DIRECTION('',(0.,0.,-1.));
#669=DIRECTION('',(1.,0.,0.));
#670=DIRECTION('',(0.,0.,-1.));
#671=DIRECTION('',(-1.,0.,0.));
#672=DIRECTION('',(0.,0.,-1.));
#673=DIRECTION('',(1.,0.,0.));
#674=DIRECTION('',(0.,0.,-1.));
#675=DIRECTION('',(1.,0.,0.));
#676=DIRECTION('',(0.,0.,-1.));
#677=DIRECTION('',(-1.,0.,0.));
#678=DIRECTION('',(0.,0.,1.));
#679=DIRECTION('',(1.,0.,0.));
#680=DIRECTION('',(0.,0.,1.));
#681=DIRECTION('',(1.,0.,0.));
#682=DIRECTION('',(0.,0.,-1.));
#683=DIRECTION('',(-1.,0.,0.));
#684=DIRECTION('',(0.,0.,-1.));
#685=DIRECTION('',(1.,0.,0.));
#686=DIRECTION('',(0.,0.,-1.));
#687=DIRECTION('',(1.,0.,0.));
#688=DIRECTION('',(0.,-1.,0.));
#689=DIRECTION('',(0.,0.,-1.));
#690=DIRECTION('',(-1.,0.,0.));
#691=DIRECTION('',(-1.,0.,0.));
#692=DIRECTION('',(1.,0.,0.));
#693=DIRECTION('',(0.,0.,-1.));
#694=DIRECTION('',(0.,-1.,0.));
#695=DIRECTION('',(0.,-1.,0.));
#696=DIRECTION('',(0.,0.,1.));
#697=DIRECTION('',(1.,0.,0.));
#698=DIRECTION('',(0.,0.,1.));
#699=DIRECTION('',(1.,0.,0.));
#700=CARTESIAN_POINT('',(0.,0.,0.));
#701=CARTESIAN_POINT('',(0.00035,-0.0229,0.001588));
#702=CARTESIAN_POINT('',(0.00035,-0.0229,0.));
#703=CARTESIAN_POINT('',(0.00185,-0.0229,0.));
#704=CARTESIAN_POINT('',(-0.00115,-0.0229,0.));
#705=CARTESIAN_POINT('',(-0.00115,-0.0229,0.001588));
#706=CARTESIAN_POINT('',(-0.00115,-0.0229,0.001588));
#707=CARTESIAN_POINT('',(0.00035,-0.0229,0.001588));
#708=CARTESIAN_POINT('',(0.00185,-0.0229,0.001588));
#709=CARTESIAN_POINT('',(0.00185,-0.0229,0.001588));
#710=CARTESIAN_POINT('',(-0.00115,-0.017405,0.001588));
#711=CARTESIAN_POINT('',(-0.00115,-0.017405,0.));
#712=CARTESIAN_POINT('',(-0.00115,-0.01191,0.));
#713=CARTESIAN_POINT('',(-0.00115,-0.01191,0.001588));
#714=CARTESIAN_POINT('',(-0.00115,-0.01191,0.001588));
#715=CARTESIAN_POINT('',(-0.00115,-0.017405,0.001588));
#716=CARTESIAN_POINT('',(0.00035,-0.01191,0.001588));
#717=CARTESIAN_POINT('',(0.00035,-0.01191,0.));
#718=CARTESIAN_POINT('',(0.00185,-0.01191,0.));
#719=CARTESIAN_POINT('',(0.00185,-0.01191,0.001588));
#720=CARTESIAN_POINT('',(0.00185,-0.01191,0.001588));
#721=CARTESIAN_POINT('',(0.00035,-0.01191,0.001588));
#722=CARTESIAN_POINT('',(-0.00125,0.001055,0.001588));
#723=CARTESIAN_POINT('',(-0.00125,0.001055,0.));
#724=CARTESIAN_POINT('',(-0.00125,0.00655,0.));
#725=CARTESIAN_POINT('',(-0.00125,-0.00444,0.));
#726=CARTESIAN_POINT('',(-0.00125,0.00655,0.001588));
#727=CARTESIAN_POINT('',(-0.00125,0.00655,0.001588));
#728=CARTESIAN_POINT('',(-0.00125,0.001055,0.001588));
#729=CARTESIAN_POINT('',(-0.00125,-0.00444,0.001588));
#730=CARTESIAN_POINT('',(-0.00125,-0.00444,0.001588));
#731=CARTESIAN_POINT('',(0.00025,0.00655,0.001588));
#732=CARTESIAN_POINT('',(0.00025,0.00655,0.));
#733=CARTESIAN_POINT('',(0.00175,0.00655,0.));
#734=CARTESIAN_POINT('',(0.00175,0.00655,0.001588));
#735=CARTESIAN_POINT('',(0.00175,0.00655,0.001588));
#736=CARTESIAN_POINT('',(0.00025,0.00655,0.001588));
#737=CARTESIAN_POINT('',(0.00175,0.001055,0.001588));
#738=CARTESIAN_POINT('',(0.00175,0.001055,0.));
#739=CARTESIAN_POINT('',(0.00175,-0.00444,0.));
#740=CARTESIAN_POINT('',(0.00175,-0.00444,0.001588));
#741=CARTESIAN_POINT('',(0.00175,-0.00444,0.001588));
#742=CARTESIAN_POINT('',(0.00175,0.001055,0.001588));
#743=CARTESIAN_POINT('',(0.020125,0.,0.001588));
#744=CARTESIAN_POINT('',(0.020125,0.,0.));
#745=CARTESIAN_POINT('',(0.020125,0.066675,0.));
#746=CARTESIAN_POINT('',(0.020125,-0.066675,0.));
#747=CARTESIAN_POINT('',(0.020125,0.066675,0.001588));
#748=CARTESIAN_POINT('',(0.020125,0.066675,0.001588));
#749=CARTESIAN_POINT('',(0.020125,0.,0.001588));
#750=CARTESIAN_POINT('',(0.020125,-0.066675,0.001588));
#751=CARTESIAN_POINT('',(0.020125,-0.066675,0.001588));
#752=CARTESIAN_POINT('',(3.46944695195361E-18,0.066675,0.001588));
#753=CARTESIAN_POINT('',(3.46944695195361E-18,0.066675,0.));
#754=CARTESIAN_POINT('',(-0.020125,0.066675,0.));
#755=CARTESIAN_POINT('',(-0.020125,0.066675,0.001588));
#756=CARTESIAN_POINT('',(-0.020125,0.066675,0.001588));
#757=CARTESIAN_POINT('',(3.46944695195361E-18,0.066675,0.001588));
#758=CARTESIAN_POINT('',(-0.020125,0.,0.001588));
#759=CARTESIAN_POINT('',(-0.020125,0.,0.));
#760=CARTESIAN_POINT('',(-0.020125,-0.066675,0.));
#761=CARTESIAN_POINT('',(-0.020125,-0.066675,0.001588));
#762=CARTESIAN_POINT('',(-0.020125,-0.066675,0.001588));
#763=CARTESIAN_POINT('',(-0.020125,0.,0.001588));
#764=CARTESIAN_POINT('',(0.01,-0.04,0.001588));
#765=CARTESIAN_POINT('',(0.01,-0.04,0.001588));
#766=CARTESIAN_POINT('',(0.0133,-0.04,0.001588));
#767=CARTESIAN_POINT('',(0.01,-0.04,0.));
#768=CARTESIAN_POINT('',(0.0133,-0.04,0.));
#769=CARTESIAN_POINT('',(-0.0101,-0.01765,0.001588));
#770=CARTESIAN_POINT('',(-0.0101,-0.01765,0.001588));
#771=CARTESIAN_POINT('',(-0.006225,-0.01765,0.001588));
#772=CARTESIAN_POINT('',(-0.0101,-0.01765,0.));
#773=CARTESIAN_POINT('',(-0.006225,-0.01765,0.));
#774=CARTESIAN_POINT('',(-0.0102,0.0008,0.001588));
#775=CARTESIAN_POINT('',(-0.0102,0.0008,0.001588));
#776=CARTESIAN_POINT('',(-0.006325,0.0008,0.001588));
#777=CARTESIAN_POINT('',(-0.0102,0.0008,0.));
#778=CARTESIAN_POINT('',(-0.006325,0.0008,0.));
#779=CARTESIAN_POINT('',(0.01,0.00755,0.001588));
#780=CARTESIAN_POINT('',(0.01,0.00755,0.001588));
#781=CARTESIAN_POINT('',(0.0129,0.00755,0.001588));
#782=CARTESIAN_POINT('',(0.01,0.00755,0.));
#783=CARTESIAN_POINT('',(0.0129,0.00755,0.));
#784=CARTESIAN_POINT('',(0.01,-0.00745,0.001588));
#785=CARTESIAN_POINT('',(0.01,-0.00745,0.001588));
#786=CARTESIAN_POINT('',(0.0129,-0.00745,0.001588));
#787=CARTESIAN_POINT('',(0.01,-0.00745,0.));
#788=CARTESIAN_POINT('',(0.0129,-0.00745,0.));
#789=CARTESIAN_POINT('',(0.01,-0.02245,0.001588));
#790=CARTESIAN_POINT('',(0.01,-0.02245,0.001588));
#791=CARTESIAN_POINT('',(0.0129,-0.02245,0.001588));
#792=CARTESIAN_POINT('',(0.01,-0.02245,0.));
#793=CARTESIAN_POINT('',(0.0129,-0.02245,0.));
#794=CARTESIAN_POINT('',(-0.012675,0.063675,0.001588));
#795=CARTESIAN_POINT('',(-0.012675,0.063675,0.001588));
#796=CARTESIAN_POINT('',(-0.011075,0.063675,0.001588));
#797=CARTESIAN_POINT('',(-0.012675,0.063675,0.));
#798=CARTESIAN_POINT('',(-0.011075,0.063675,0.));
#799=CARTESIAN_POINT('',(0.012725,0.063675,0.001588));
#800=CARTESIAN_POINT('',(0.012725,0.063675,0.001588));
#801=CARTESIAN_POINT('',(0.014325,0.063675,0.001588));
#802=CARTESIAN_POINT('',(0.012725,0.063675,0.));
#803=CARTESIAN_POINT('',(0.014325,0.063675,0.));
#804=CARTESIAN_POINT('',(-0.012675,-0.063675,0.001588));
#805=CARTESIAN_POINT('',(-0.012675,-0.063675,0.001588));
#806=CARTESIAN_POINT('',(-0.011075,-0.063675,0.001588));
#807=CARTESIAN_POINT('',(-0.012675,-0.063675,0.));
#808=CARTESIAN_POINT('',(-0.011075,-0.063675,0.));
#809=CARTESIAN_POINT('',(0.012725,-0.063675,0.001588));
#810=CARTESIAN_POINT('',(0.012725,-0.063675,0.001588));
#811=CARTESIAN_POINT('',(0.014325,-0.063675,0.001588));
#812=CARTESIAN_POINT('',(0.012725,-0.063675,0.));
#813=CARTESIAN_POINT('',(0.014325,-0.063675,0.));
#814=CARTESIAN_POINT('',(-0.01,-0.04,0.001588));
#815=CARTESIAN_POINT('',(-0.01,-0.04,0.001588));
#816=CARTESIAN_POINT('',(-0.0067,-0.04,0.001588));
#817=CARTESIAN_POINT('',(-0.01,-0.04,0.));
#818=CARTESIAN_POINT('',(-0.0067,-0.04,0.));
#819=CARTESIAN_POINT('',(0.00025,-0.00444,0.001588));
#820=CARTESIAN_POINT('',(0.00025,-0.00444,0.));
#821=CARTESIAN_POINT('',(0.00025,-0.00444,0.001588));
#822=CARTESIAN_POINT('',(-6.93889390390723E-18,-0.066675,0.001588));
#823=CARTESIAN_POINT('',(-6.93889390390723E-18,-0.066675,0.));
#824=CARTESIAN_POINT('',(-6.93889390390723E-18,-0.066675,0.001588));
#825=CARTESIAN_POINT('',(0.00185,-0.017405,0.001588));
#826=CARTESIAN_POINT('',(0.00185,-0.017405,0.));
#827=CARTESIAN_POINT('',(0.00185,-0.017405,0.001588));
#828=CARTESIAN_POINT('',(0.,0.,0.001588));
#829=CARTESIAN_POINT('',(0.,0.,0.));
#830=MECHANICAL_DESIGN_GEOMETRIC_PRESENTATION_REPRESENTATION('',(#493),
#831);
#831=(
GEOMETRIC_REPRESENTATION_CONTEXT(3)
GLOBAL_UNCERTAINTY_ASSIGNED_CONTEXT((#832))
GLOBAL_UNIT_ASSIGNED_CONTEXT((#835,#834,#833))
REPRESENTATION_CONTEXT('Panel','TOP_LEVEL_ASSEMBLY_PART')
);
#832=UNCERTAINTY_MEASURE_WITH_UNIT(LENGTH_MEASURE(1.E-8),#835,
'DISTANCE_ACCURACY_VALUE','Maximum Tolerance applied to model');
#833=(
NAMED_UNIT(*)
SI_UNIT($,.STERADIAN.)
SOLID_ANGLE_UNIT()
);
#834=(
NAMED_UNIT(*)
PLANE_ANGLE_UNIT()
SI_UNIT($,.RADIAN.)
);
#835=(
LENGTH_UNIT()
NAMED_UNIT(*)
SI_UNIT($,.METRE.)
);
#836=PRODUCT_DEFINITION_SHAPE('','',#837);
#837=PRODUCT_DEFINITION('','',#839,#838);
#838=PRODUCT_DEFINITION_CONTEXT('',#845,'design');
#839=PRODUCT_DEFINITION_FORMATION_WITH_SPECIFIED_SOURCE('','',#841,
 .NOT_KNOWN.);
#840=PRODUCT_RELATED_PRODUCT_CATEGORY('','',(#841));
#841=PRODUCT('Panel','Panel','Panel',(#843));
#842=PRODUCT_CATEGORY('','');
#843=PRODUCT_CONTEXT('',#845,'mechanical');
#844=APPLICATION_PROTOCOL_DEFINITION('international standard',
'ap242_managed_model_based_3d_engineering',2020,#845);
#845=APPLICATION_CONTEXT('managed model based 3d engineering');
ENDSEC;
END-ISO-10303-21;
